<svg xmlns="http://www.w3.org/2000/svg" xmlns:xlink="http://www.w3.org/1999/xlink" width="479" zoomAndPan="magnify" viewBox="0 0 359.25 374.999991" height="500" preserveAspectRatio="xMidYMid meet" version="1.0"><metadata/><defs><clipPath id="5e275ce4d8"><path d="M 0 0.390625 L 358.5 0.390625 L 358.5 374.609375 L 0 374.609375 Z M 0 0.390625 " clip-rule="nonzero"/></clipPath><clipPath id="e32493d3cc"><path d="M 0 0.390625 L 358.5 0.390625 L 358.5 374.609375 L 0 374.609375 Z M 0 0.390625 " clip-rule="nonzero"/></clipPath><clipPath id="09e312e387"><rect x="0" width="359" y="0" height="375"/></clipPath></defs><g clip-path="url(#5e275ce4d8)"><g transform="matrix(1, 0, 0, 1, 0, 0.0000000000000136)"><g clip-path="url(#09e312e387)"><g clip-path="url(#e32493d3cc)"><path stroke-linecap="round" transform="matrix(0.306022, -0.656266, 0.656266, 0.306022, 2.849576, 342.045454)" fill="none" stroke-linejoin="miter" d="M 42.999899 42.997904 L 477.03643 42.997147 " stroke="#000000" stroke-width="86" stroke-opacity="1" stroke-miterlimit="4"/><path stroke-linecap="round" transform="matrix(0.306022, 0.656266, -0.656266, 0.306022, 192.557597, 0.391844)" fill="none" stroke-linejoin="miter" d="M 42.998533 43.00084 L 477.035063 43.001596 " stroke="#000000" stroke-width="86" stroke-opacity="1" stroke-miterlimit="4"/><path stroke-linecap="round" transform="matrix(0.724107, -0.00196467, 0.00196467, 0.724107, 0.00000977377, 254.564897)" fill="none" stroke-linejoin="miter" d="M 61.11528 99.357964 C 182.891363 24.196681 304.668462 24.214205 426.446564 99.41593 " stroke="#000000" stroke-width="86" stroke-opacity="1" stroke-miterlimit="4"/></g></g></g></g></svg>